HIERARCHY
ROOT root     
{
	OFFSET 0.0000 0.0000 0.0000
	CHANNELS 6 Xposition Yposition Zposition Zrotation Yrotation Xrotation
	JOINT pelvis   
	{
		OFFSET 0.0000 0.0000 0.0000
		CHANNELS 3 Zrotation Yrotation Xrotation
		JOINT thorax   
		{
			OFFSET 0.0000 23.0750 -5.0000
			CHANNELS 3 Zrotation Yrotation Xrotation
			JOINT rclavicle
			{
				OFFSET 0.0000 28.0009 0.0000
				CHANNELS 3 Zrotation Yrotation Xrotation
				JOINT rhumerus 
				{
					OFFSET -18.5725 5.5939 0.0000
					CHANNELS 3 Zrotation Yrotation Xrotation
					JOINT rradius  
					{
						OFFSET -24.8459 0.0000 0.0000
						CHANNELS 3 Zrotation Yrotation Xrotation
						JOINT rhand    
						{
							OFFSET -24.5477 0.0000 0.0000
							CHANNELS 3 Zrotation Yrotation Xrotation
							End Site
							{
								OFFSET -8.1826 0.0000 0.0000
							}
						}
					}
				}
			}
			JOINT lclavicle
			{
				OFFSET 0.0000 28.0009 0.0000
				CHANNELS 3 Zrotation Yrotation Xrotation
				JOINT lhumerus 
				{
					OFFSET 18.5725 5.5939 0.0000
					CHANNELS 3 Zrotation Yrotation Xrotation
					JOINT lradius  
					{
						OFFSET 24.8459 0.0000 0.0000
						CHANNELS 3 Zrotation Yrotation Xrotation
						JOINT lhand    
						{
							OFFSET 24.5477 0.0000 0.0000
							CHANNELS 3 Zrotation Yrotation Xrotation
							End Site
							{
								OFFSET 8.1826 0.0000 0.0000
							}
						}
					}
				}
			}
			JOINT head     
			{
				OFFSET 0.0000 35.2030 0.0000
				CHANNELS 3 Zrotation Yrotation Xrotation
				End Site
				{
					OFFSET 0.0000 11.7343 0.0000
				}
			}
		}
		JOINT rfemur   
		{
			OFFSET -8.2817 0.0000 0.0000
			CHANNELS 3 Zrotation Yrotation Xrotation
			JOINT rtibia   
			{
				OFFSET 0.0000 -43.3627 0.0000
				CHANNELS 3 Zrotation Yrotation Xrotation
				JOINT rfoot    
				{
					OFFSET 0.0000 -38.2947 0.0000
					CHANNELS 3 Zrotation Yrotation Xrotation
					JOINT rtoes    
					{
						OFFSET 0.0000 0.0000 16.6054
						CHANNELS 3 Zrotation Yrotation Xrotation
						End Site
						{
							OFFSET 0.0000 0.0000 5.5351
						}
					}
				}
			}
		}
		JOINT lfemur   
		{
			OFFSET 8.2817 0.0000 0.0000
			CHANNELS 3 Zrotation Yrotation Xrotation
			JOINT ltibia   
			{
				OFFSET 0.0000 -43.3627 0.0000
				CHANNELS 3 Zrotation Yrotation Xrotation
				JOINT lfoot    
				{
					OFFSET 0.0000 -38.2947 0.0000
					CHANNELS 3 Zrotation Yrotation Xrotation
					JOINT ltoes    
					{
						OFFSET 0.0000 0.0000 16.6054
						CHANNELS 3 Zrotation Yrotation Xrotation
						End Site
						{
							OFFSET 0.0000 0.0000 5.5351
						}
					}
				}
			}
		}
	}
}
MOTION
Frames: 23
Frame Time: .0333333
17.34 87.146 17.614 10.2156 12.4581 28.089 0 -0 0 -17.0537 2.96891 -11.0097 17.4295 -4.64901 -1.50798e-05 44.2482 27.4835 62.308 -0 84.5189 -0 13.1686 4.88473 0.564206 -24.4543 18.2023 -0.00011952 -32.9694 19.7243 13.8165 180 -88.6061 -180 4.30858 -0.732197 -0.0275006 0.326171 -17.5536 -9.20289 5.03835 9.21047 -3.98265 -0 -0 11.5729 -0.000191994 16.5905 27.0272 -172.29 -7.61931e-07 -1.07411 0.0173089 1.42527 -32.1314 -0 -0 11.3925 4.04178e-07 4.55782 6.74671 0.536606 -6.11461e-07 -41.1797 
17.847 86.823 18.483 10.1759 11.2205 28.1005 0 -0 0 -17.5565 3.23409 -11.3035 17.4945 -4.82301 2.55669e-06 44.2005 27.5333 61.8296 5.85977e-07 85.0786 1.18542e-06 13.5855 4.60295 0.548589 -24.0876 18.1387 0.00013384 -32.1653 20.0256 14.6335 180 -88.4886 -180 3.98283 -1.03151 -0.0358994 0.38036 -16.9602 -9.49888 4.81722 9.1493 -3.53041 -0 -0 12.2455 5.41336e-05 17.4341 28.0124 8.38989 -5.79914e-06 -2.69437 -0.884522 2.54551 -32.9558 -0 -0 11.0458 -5.76429e-06 3.39457 6.31624 0.373896 -2.17036e-06 -42.0629 
18.351 86.456 19.349 10.1518 10.1112 28.1249 0 -0 0 -17.9952 3.37686 -11.5846 17.7233 -5.02742 -5.2004e-06 43.9909 27.5134 61.1204 0 85.7472 0 14.0254 4.30089 0.529316 -23.7347 18.0225 -1.5099e-05 -31.4254 20.3647 15.395 180 -88.3615 -180 3.70843 -1.2451 -0.0403001 0.515925 -16.3367 -9.82893 4.61617 9.31419 -3.18457 -0 -0 13.1312 2.19368e-05 18.2523 29.0506 9.09804 -1.08069e-05 -6.56207 -1.4991 3.05047 -33.7966 -0 -0 11.1397 -1.92389e-06 2.67583 5.89037 0.274798 6.69742e-07 -42.6095 
18.854 86.047 20.208 10.1518 9.13873 28.1582 0 -0 0 -18.369 3.37969 -11.8421 18.1044 -5.2524 -3.99767e-06 43.6427 27.4263 60.1994 -0 86.4914 -0 14.3931 4.02283 0.508185 -23.4014 17.8705 -5.24072e-05 -30.7331 20.7037 16.1234 180 -88.2061 -180 3.50597 -1.3486 -0.0412998 0.721299 -15.6882 -10.1878 4.44551 9.68124 -2.95523 -0 -0 14.245 2.81256e-05 18.9805 30.1915 9.81304 -1.10237e-07 -11.0953 -1.75189 2.85355 -34.634 -0 -0 11.6914 -1.63104e-06 2.50707 5.4307 0.237399 -1.25749e-06 -42.7752 
19.361 85.601 21.06 10.1951 8.30462 28.1956 0 -0 0 -18.6829 3.2344 -12.0607 18.6165 -5.48832 -1.13589e-05 43.1839 27.2684 59.0807 -6.50625e-06 87.2876 -6.20436e-06 14.6081 3.82079 0.489904 -23.1043 17.6832 4.05206e-05 -30.0726 21.0327 16.8178 180 -88.0534 -180 3.3848 -1.33685 -0.0394984 0.976612 -15.0237 -10.5656 4.29633 10.1468 -2.85665 -0 -0 15.6307 0.000105736 19.5866 31.3232 10.4797 -9.21316e-06 -15.649 -1.63771 1.94723 -35.4633 -0 -0 12.7252 -3.21897e-06 2.91244 4.89563 0.248802 1.76489e-06 -42.5715 
19.88 85.121 21.907 10.2943 7.59984 28.227 0 -0 0 -18.9419 2.94499 -12.2249 19.2232 -5.72928 2.04342e-05 42.6717 27.0362 57.7886 -0 88.0551 -0 14.6046 3.74508 0.480078 -22.8544 17.4932 0.000168401 -29.4354 21.2868 17.4979 180 -87.919 -180 3.34869 -1.21956 -0.0356985 1.2546 -14.3512 -10.9512 4.15522 10.6232 -2.89374 -0 -0 17.3048 6.75926e-05 20.0529 32.4702 11.0874 -2.88599e-05 -20.7492 -1.22029 0.424094 -36.3106 -0 -0 14.282 3.88576e-06 3.81196 4.2334 0.281802 1.34453e-06 -41.9797 
20.421 84.614 22.754 10.4599 7.00276 28.2295 0 -0 0 -19.1492 2.53369 -12.3168 19.8831 -5.96819 -1.30418e-05 42.1616 26.722 56.3462 7.01191e-06 88.7641 7.59518e-06 14.3535 3.83257 0.482778 -22.6747 17.3056 4.02774e-05 -28.8125 21.4463 18.1547 180 -87.8308 -180 3.39043 -1.02119 -0.0302003 1.52275 -13.6791 -11.3311 3.99469 10.981 -3.06506 -0 -0 19.3049 3.06228e-05 20.371 33.4837 11.5772 2.94294e-05 -25.5151 -0.622094 -1.5524 -37.1953 -0 -0 16.3805 -7.24022e-06 5.05773 3.40462 0.301099 1.82909e-06 -40.9779 
20.987 84.085 23.611 10.6888 6.47945 28.1783 0 -0 0 -19.307 2.04032 -12.3189 20.5472 -6.20168 -1.826e-05 41.7214 26.3218 54.7826 2.71055e-05 89.3644 2.76349e-05 13.8562 4.10154 0.498598 -22.5735 17.1559 -5.30824e-05 -28.211 21.4357 18.7937 180 -87.8043 -180 3.50122 -0.772703 -0.0236002 1.75029 -13.0154 -11.6944 3.79551 11.1563 -3.35133 -0 -0 21.6194 -7.31054e-05 20.5186 34.3716 11.9305 4.27564e-05 -30.2724 0.013938 -3.77026 -38.111 -0 -0 18.985 3.13846e-06 6.4741 2.40279 0.272599 -2.22081e-06 -39.6288 
21.581 83.545 24.486 10.9695 5.98807 28.0469 0 -0 0 -19.4187 1.51676 -12.2217 21.1801 -6.42489 3.24526e-05 41.4036 25.8326 53.1182 -0.000388256 89.7976 -0.000388171 13.145 4.54694 0.524192 -22.5674 17.0411 -0.000126024 -27.6308 21.245 19.3965 180 -87.9101 180 3.66478 -0.509903 -0.0163 1.91402 -12.3641 -12.0294 3.54038 11.1125 -3.72812 -0 -0 24.2332 0.00020637 20.4482 35.0541 12.0866 -5.24107e-05 -34.557 0.553688 -6.02402 -38.9946 -0 -0 21.9744 -2.34019e-06 7.9178 1.25667 0.174801 -7.9177e-07 -38.0226 
22.195 83.007 25.387 11.284 5.48636 27.8253 0 -0 0 -19.4967 1.01127 -12.0329 21.7592 -6.63666 -3.1724e-05 41.2548 25.252 51.3762 180 89.7696 180 12.2727 5.14424 0.553403 -22.6514 16.9868 -2.51324e-05 -27.0832 20.815 19.9583 180 -88.1072 180 3.86832 -0.264799 -0.00889972 2.00596 -11.7314 -12.3258 3.22053 10.8663 -4.17764 -0 -0 27.0936 -0.000129705 20.1013 35.5429 12.0106 -9.47099e-06 -38.5649 0.895379 -8.13791 -39.7586 -0 -0 25.1504 -6.61415e-08 9.29646 0.0228997 0.00369997 5.19123e-08 -36.3462 
22.817 82.489 26.316 11.6137 4.94021 27.5215 0 -0 0 -19.5539 0.560557 -11.7753 22.2809 -6.83499 3.04482e-05 41.2972 24.5781 49.5756 -180 89.6849 -180 11.2976 5.85159 0.579297 -22.8227 16.9849 7.18105e-05 -26.5732 20.1463 20.4549 180 -88.4658 -180 4.0973 -0.0636003 -0.00230001 2.03221 -11.1193 -12.5753 2.83236 10.4564 -4.70526 -0 -0 30.1512 1.17298e-05 19.4175 35.8139 11.6546 7.10124e-06 -42.1826 0.97963 -9.98019 -40.3165 -0 -0 28.2894 -2.48823e-06 10.5661 -1.24153 -0.231597 2.14859e-07 -34.7953 
23.431 82.011 27.266 11.9411 4.32709 27.1607 0 -0 0 -19.606 0.182748 -11.4879 22.7537 -7.01895 -6.64346e-06 41.5335 23.8121 47.7323 -180 89.6803 -180 10.2691 6.61896 0.595398 -23.0708 17.0327 6.08823e-05 -26.1061 19.2395 20.8744 180 -88.9135 -180 4.34008 0.0778999 0.003 2.00943 -10.5271 -12.7697 2.37735 9.92845 -5.33772 -0 -0 33.3505 2.70383e-05 18.3542 35.8619 10.999 2.99118e-05 -45.4627 0.78917 -11.459 -40.6135 -0 -0 31.1817 1.08898e-05 11.7092 -2.49594 -0.517102 -4.75784e-07 -33.5449 
24.02 81.592 28.23 12.25 3.63588 26.7803 0 -0 0 -19.6627 -0.118264 -11.2142 23.1869 -7.18773 -3.37099e-05 41.9536 22.9588 45.8605 -180 89.7478 -180 9.21771 7.39342 0.596791 -23.3826 17.1239 -0.000178352 -25.685 18.1041 21.2049 180 -89.5003 -180 4.58922 0.155206 0.00620007 1.95965 -9.95141 -12.9033 1.8657 9.32218 -6.1146 -0 -0 36.6448 0.000209304 16.8979 35.6634 10.0433 -1.61505e-05 -48.3634 0.344111 -12.5171 -40.6295 -0 -0 33.6706 7.55507e-06 12.718 -3.72168 -0.839298 3.24294e-06 -32.7026 
24.569 81.246 29.198 12.5263 2.8642 26.414 0 -0 0 -19.721 -0.346578 -10.99 23.5907 -7.33977 -3.76741e-05 42.534 22.0226 43.9745 -179.999 90 -179.999 8.15188 8.1251 0.579988 -23.743 17.2429 -0.000116824 -25.3136 16.7729 21.4368 -3.50765e-05 -89.7737 3.49601e-05 4.8397 0.173602 0.00730006 1.90444 -9.3842 -12.9724 1.31634 8.66793 -7.07096 -0 -0 39.9869 -0.000139684 15.0619 35.1914 8.81584 4.56132e-05 -50.8039 -0.309681 -13.124 -40.3757 -0 -0 35.6532 -2.64071e-08 13.5797 -4.91441 -1.18549 4.93775e-06 -32.2951 
25.07 80.984 30.162 12.756 2.01659 26.0838 0 -0 0 -19.7752 -0.510395 -10.8374 23.9687 -7.47488 -1.34761e-05 43.2432 21.0184 42.09 -0 89.728 -0 7.06093 8.77154 0.542206 -24.1396 17.3837 3.96256e-05 -24.9927 15.273 21.5702 -1.58824e-05 -89.0747 1.56211e-05 5.09108 0.147997 0.00659999 1.86405 -8.81566 -12.9814 0.753584 7.98571 -8.2235 -0 -0 43.3299 -7.68778e-05 12.8955 34.4174 7.3736 1.08931e-05 -52.6649 -1.11343 -13.2808 -39.8762 -0 -0 37.0777 1.75473e-05 14.2754 -6.07162 -1.54158 -1.9547e-06 -32.2826 
25.515 80.809 31.12 12.9243 1.10522 25.8011 0 -0 0 -19.8036 -0.620621 -10.7626 24.315 -7.59305 4.96437e-05 44.0466 19.9594 40.2217 2.71795e-05 89.3574 2.74767e-05 5.92515 9.29883 0.482294 -24.5616 17.527 -7.8488e-05 -24.7269 13.6628 21.6019 -1.9146e-05 -88.2595 1.93023e-05 5.34367 0.0961996 0.00450005 1.85038 -8.23426 -12.9289 0.215994 7.29245 -9.5678 -0 -0 46.6246 4.74298e-05 10.4684 33.3165 5.79478 -2.08729e-05 -53.8075 -2.00135 -13.0007 -39.1638 -0 -0 37.9405 5.51664e-06 14.7719 -7.18635 -1.88927 -6.36556e-06 -32.571 
25.9 80.718 32.072 13.0159 0.147561 25.5623 0 -0 0 -19.7796 -0.688928 -10.756 24.6214 -7.69459 -3.04698e-06 44.909 18.8646 38.3868 1.77604e-05 89.0183 1.80623e-05 4.73013 9.68578 0.400995 -24.9984 17.6558 -1.22158e-05 -24.5171 11.9953 21.5375 0 -87.5011 0 5.60144 0.0371002 0.00179997 1.87022 -7.62852 -12.8234 -0.256808 6.59881 -11.0757 -0 -0 49.8172 -2.29164e-06 7.86838 31.8773 4.17428 8.2334e-06 -54.1052 -2.91222 -12.32 -38.2613 -0 -0 38.2659 3.0942e-05 15.0348 -8.23755 -2.20402 -4.4944e-06 -33.0534 
26.225 80.704 33.022 13.0151 -0.831234 25.3544 0 -0 0 -19.6642 -0.729336 -10.7949 24.8714 -7.78575 -6.36104e-07 45.7906 17.7605 36.6106 -1.35958e-05 88.734 -1.3294e-05 3.4729 9.92558 0.301697 -25.4502 17.7738 -0.000103519 -24.3574 10.2957 21.3906 -4.12408e-06 -86.7858 4.36277e-06 5.87418 -0.00819999 -0.000399991 1.91989 -6.98747 -12.6715 -0.618098 5.91582 -12.7029 -0 -0 52.8551 -1.74735e-05 5.19305 30.104 2.61007 1.76849e-05 -53.4171 -3.78357 -11.2878 -37.1952 -0 -0 38.1091 1.92691e-06 15.0317 -9.19203 -2.45639 -5.68351e-06 -33.6326 
26.5 80.758 33.976 12.9384 -1.81531 25.155 0 -0 0 -19.4614 -0.756002 -10.8468 25.0501 -7.86162 -7.69408e-05 46.6749 16.6483 34.8891 3.93372e-06 88.4617 4.52613e-06 2.18329 10.0198 0.1914 -25.8829 17.8261 -5.71353e-05 -24.2761 8.67976 21.1555 -3.09123e-06 -86.1679 3.30482e-06 6.16212 -0.0420999 -0.00230006 2.0002 -6.30633 -12.4778 -0.868803 5.2379 -14.3914 -0 -0 55.6936 -1.50378e-05 2.54889 28.0136 1.1978 -6.47374e-06 -51.7812 -4.59184 -9.99879 -35.9639 -0 -0 37.5217 5.66711e-06 14.7715 -9.99662 -2.62066 -1.35447e-07 -34.2284 
26.725 80.868 34.938 12.7607 -2.76834 24.9516 0 -0 0 -19.1105 -0.788898 -10.8828 25.1401 -7.9346 -4.29086e-05 47.5143 15.5696 33.2563 -0 88.2118 -0 0.902894 9.99503 0.0789994 -26.3157 17.8491 0.000149831 -24.2461 7.11822 20.8641 -2.74203e-06 -85.7052 2.95563e-06 6.48054 -0.0476004 -0.00270008 2.08714 -5.57711 -12.2554 -0.95883 4.58254 -16.0956 -0 -0 58.2924 -9.56941e-08 0.0181995 25.645 0.00789998 -1.38564e-08 -49.0889 -5.27162 -8.52273 -34.5996 -0 -0 36.6003 5.52697e-05 14.2496 -10.6081 -2.67674 2.32403e-06 -34.8202 
26.909 81.024 35.912 12.4941 -3.66754 24.7369 0 -0 0 -18.6015 -0.849994 -10.8822 25.1302 -8.00734 -4.69042e-05 48.2804 14.5375 31.7228 -0 88.0599 -0 -0.298703 9.88615 -0.0258003 -26.7405 17.8338 -1.43222e-05 -24.2646 5.65073 20.5287 -1.95481e-06 -85.4048 1.80378e-06 6.83557 -0.0273004 -0.00160004 2.16347 -4.79949 -12.0078 -0.892231 3.95372 -17.7794 -0 -0 60.6308 -2.78342e-06 -2.32275 23.0424 -0.909611 -5.32404e-06 -45.3901 -5.79463 -6.97387 -33.1231 -0 -0 35.4272 -0.000111786 13.521 -10.9795 -2.62202 1.8277e-05 -35.4099 
27.062 81.216 36.903 12.1602 -4.4951 24.4869 0 -0 0 -17.9442 -0.955842 -10.8155 25.0101 -8.06559 3.27152e-05 48.9683 13.535 30.2703 5.94341e-06 87.9937 6.15683e-06 -1.35495 9.72432 -0.115304 -27.1169 17.7214 -8.99482e-06 -24.3832 4.38348 20.1397 -3.29982e-06 -85.2721 3.03819e-06 7.2179 -0.0115997 -0.00069996 2.21361 -3.97756 -11.7429 -0.691787 3.35345 -19.3964 -0 -0 62.6901 -5.41629e-06 -4.4222 20.2774 -1.53529 3.52232e-06 -40.9762 -6.15123 -5.4707 -31.532 -0 -0 34.0755 3.22367e-05 12.6613 -11.0827 -2.4727 -3.25337e-06 -36.0082 
27.193 81.436 37.907 11.7674 -5.23214 24.222 0 -0 0 -17.1315 -1.13347 -10.689 24.7903 -8.13024 3.58533e-05 49.5291 12.6031 28.9331 -0 87.9598 -0 -2.20973 9.55986 -0.184803 -27.4633 17.5722 -7.0966e-06 -24.5504 3.23298 19.7406 0 -85.3249 0 7.64017 0.00900001 0.000599898 2.21443 -3.11503 -11.4666 -0.375695 2.79537 -20.9615 -0 -0 64.4718 3.03984e-05 -6.24869 17.412 -1.87666 2.12617e-05 -35.9039 -6.32318 -4.12795 -29.8791 -0 -0 32.6294 -2.37205e-05 11.7644 -10.9063 -2.25655 -2.78932e-05 -36.6363 
